# xmcd
#
# Track frame offsets: 
#        150
#        16642
#        34506
#        48111
#        61373
#        78187
#        92182
#        104984
#        114738
#        128863
#        144972
#        156842
#        172369
#        184646
#        200065
#        221355
#        230434
#        246091
#        263886
#        278800
#
# Disc length: 3929 seconds
#
# Revision: 7
# Processed by: cddbd v1.4PL0 Copyright (c) Steve Scherf et al.
# Submitted via: ExactAudioCopy v0.90b4
#
DISCID=1b0f5714
DTITLE=Various Artist - Swing Sucks
DYEAR=1999
DGENRE=Swing
TTITLE0=Mitch Woods and his Rocket 88's - Swingin' At The Savoy
TTITLE1=Royal Crown Revue - The Rise And Fall Of The Great Mondello
TTITLE2=Alien Fashion Show - Detroit Swing City
TTITLE3=Steve Lucky and The Rhumba Bums - Rumpus Room, Honey Moon
TTITLE4=The Bill Elliot Swing Orchestra - Mildred, won't You Behave?
TTITLE5=The Camaros - Too Damn Picky
TTITLE6=Big Sandy - Hey Girl, Hey Boy
TTITLE7=The Lucky Strikes - Things Are Looking Up
TTITLE8=ACME Swing Co. - All But Broken
TTITLE9=New Morty Show - Out Of Control
TTITLE10=Crescent City Maulers - Five Months, Two Weeks
TTITLE11=Hipster Daddy-O and the Handgrenades - Daddy-0
TTITLE12=Swingerhead - Candy For Breakfast
TTITLE13=Dave's Big Deluxe - Time After Time
TTITLE14=Lee Press On and The Nails - Mississippi Darlin'
TTITLE15=Walley's Swing World - American Bandstand
TTITLE16=Dem Brooklyn Bums - On The Water Front
TTITLE17=The Eric Erkstrand Ensemble - Spike Heeled Stomp
TTITLE18=The Ray Gelato Giants - Given Up, Given Up
TTITLE19=The Big Six - New Orleans
EXTD=
EXTT0=
EXTT1=
EXTT2=
EXTT3=
EXTT4=
EXTT5=
EXTT6=
EXTT7=
EXTT8=
EXTT9=
EXTT10=
EXTT11=
EXTT12=
EXTT13=
EXTT14=
EXTT15=
EXTT16=
EXTT17=
EXTT18=
EXTT19=
PLAYORDER=
